<?xml version="1.0" encoding="UTF-8"?>
<!DOCTYPE svg PUBLIC "-//W3C//DTD SVG 1.1//EN" "http://www.w3.org/Graphics/SVG/1.1/DTD/svg11.dtd">
<!-- Creator: CorelDRAW 2019 (64-Bit) -->
<svg xmlns="http://www.w3.org/2000/svg" xml:space="preserve" width="426px" height="346px" version="1.1" style="shape-rendering:geometricPrecision; text-rendering:geometricPrecision; image-rendering:optimizeQuality; fill-rule:evenodd; clip-rule:evenodd"
viewBox="0 0 187.26 152.14"
 xmlns:xlink="http://www.w3.org/1999/xlink">
 <defs>
  <style type="text/css">
   <![CDATA[
    .str0 {stroke:#6C6C6C;stroke-width:5.5;stroke-miterlimit:22.9256}
    .str1 {stroke:#FEFEFE;stroke-width:3.66;stroke-miterlimit:22.9256}
    .fil5 {fill:none}
    .fil4 {fill:#29FFFF}
    .fil0 {fill:#747474}
    .fil1 {fill:#969696}
    .fil3 {fill:white}
    .fil2 {fill:#FEFEFE;fill-rule:nonzero}
   ]]>
  </style>
 </defs>
 <g id="Capa_x0020_1">
  <metadata id="CorelCorpID_0Corel-Layer"/>
  <polygon class="fil0" points="4.05,4.72 184.14,4.72 184.14,148 4.05,148 "/>
  <path class="fil1" d="M186.03 1.97c0.76,0.94 1.23,2.15 1.23,3.32l0 142.28c0,2.51 -2.07,4.57 -4.58,4.57l-178.1 0c-1.25,0 -2.39,-0.51 -3.2,-1.33l5.69 -6.26c0.73,0.74 1.74,1.18 2.85,1.18l166.93 -0.05c2.29,0 4.19,-1.87 4.19,-4.19l-0.04 -130.44c0,-1.2 -0.51,-2.28 -1.31,-3.04l6.34 -6.04z"/>
  <path class="fil2" d="M66.94 129.9l5.73 0 -2.82 -8.83 -2.91 8.83zm0.31 -13.96l5.3 0 7.9 22.43 -5.08 0 -1.47 -4.61 -8.23 0 -1.52 4.61 -4.88 0 7.98 -22.43z"/>
  <path id="1" class="fil2" d="M98.43 122.95c-0.36,-1.53 -1.23,-2.6 -2.61,-3.2 -0.77,-0.34 -1.63,-0.51 -2.57,-0.51 -1.81,0 -3.29,0.68 -4.45,2.04 -1.16,1.36 -1.74,3.41 -1.74,6.14 0,2.75 0.63,4.7 1.89,5.84 1.25,1.14 2.68,1.71 4.28,1.71 1.58,0 2.86,-0.45 3.87,-1.35 1,-0.9 1.63,-2.08 1.86,-3.54l-5.21 0 0 -3.74 9.35 0 0 12.03 -3.09 0 -0.48 -2.81c-0.9,1.06 -1.71,1.8 -2.43,2.24 -1.24,0.75 -2.77,1.13 -4.57,1.13 -2.97,0 -5.41,-1.03 -7.3,-3.09 -1.98,-2.06 -2.97,-4.88 -2.97,-8.47 0,-3.62 1,-6.52 3,-8.71 2,-2.18 4.64,-3.28 7.93,-3.28 2.85,0 5.14,0.72 6.87,2.17 1.73,1.44 2.72,3.24 2.97,5.4l-4.6 0z"/>
  <path id="2" class="fil2" d="M106.58 127.35c0,-3.91 1.04,-6.93 3.11,-9.05 1.8,-1.84 4.09,-2.76 6.87,-2.76 3.73,0 6.45,1.23 8.17,3.7 0.95,1.39 1.47,2.78 1.53,4.18l-4.64 0c-0.29,-1.08 -0.68,-1.89 -1.14,-2.44 -0.84,-0.97 -2.08,-1.46 -3.71,-1.46 -1.67,0 -2.99,0.69 -3.95,2.06 -0.96,1.38 -1.44,3.32 -1.44,5.83 0,2.52 0.5,4.4 1.52,5.65 1.01,1.25 2.3,1.88 3.86,1.88 1.61,0 2.83,-0.53 3.67,-1.61 0.47,-0.57 0.86,-1.44 1.16,-2.59l4.64 0c-0.4,2.44 -1.42,4.42 -3.07,5.96 -1.65,1.53 -3.76,2.29 -6.33,2.29 -3.19,0 -5.69,-1.03 -7.51,-3.1 -1.83,-2.08 -2.74,-4.93 -2.74,-8.54z"/>
  <path class="fil3" d="M0 5.03l0 142.54c0,1.26 0.52,2.42 1.38,3.24l5.69 -6.26c-0.83,-0.73 -1.33,-1.81 -1.33,-3.01l0 -130.49c0,-2.3 1.87,-4.19 4.18,-4.19l166.89 0c1.11,0 2.12,0.44 2.88,1.15l6.34 -6.04c-0.87,-1.17 -2.13,-1.97 -3.49,-1.97l-178.05 0c-2.58,0 -4.49,2.59 -4.49,5.03z"/>
  <rect class="fil4" x="63.39" y="30.26" width="60.31" height="60.31"/>
  <polyline class="fil5 str0" points="123.86,32.01 123.7,90.75 61.18,90.99 "/>
  <polyline class="fil5 str1" points="62.95,88.13 63.56,30.24 126.72,30.2 "/>
 </g>
</svg>
